# xmcd
#
# Track frame offsets:
#	150
#	17540
#	57972
#	86350
#	126427
#	151757
#	175685
#	194955
#	214487
#	232795
#	261067
#	277575
#
# Disc length: 3999 seconds
#
# Revision: 0
# Processed by: cddbd v1.4PL0 Copyright (c) Steve Scherf et al.
# Submitted via: EasyCDDAExtractor 4.6.0.1
#
DISCID=9a0f9d0c
DTITLE=Mark Lincoln Braun - Joybox - Mr. B Piano Blues and Boogie
DYEAR=1998
DGENRE=Blues
TTITLE0=Rockin' with Red
TTITLE1=Circle Blues
TTITLE2=My Sunday Best
TTITLE3=Deep Excavation
TTITLE4=I Never Looked Away From You
TTITLE5=Hallelujah Train
TTITLE6=Joybox Rocks
TTITLE7=The Ray
TTITLE8=White Sox
TTITLE9=Little Brother
TTITLE10=Cornell St.
TTITLE11=Hillbilly Holiday
EXTD=
EXTT0=
EXTT1=
EXTT2=
EXTT3=
EXTT4=
EXTT5=
EXTT6=
EXTT7=
EXTT8=
EXTT9=
EXTT10=
EXTT11=
PLAYORDER=
